<mxfile host="app.diagrams.net" modified="2020-06-15T15:03:05.665Z" agent="5.0 (Windows NT 10.0; Win64; x64) AppleWebKit/537.36 (KHTML, like Gecko) Chrome/83.0.4103.97 Safari/537.36" etag="SwYoC86ugR6FllKEh9Y9" version="13.2.4" type="github">
  <diagram id="7LUecwLF1ewfJfLgaaEl" name="Page-1">
    <mxGraphModel dx="1022" dy="438" grid="0" gridSize="10" guides="1" tooltips="1" connect="1" arrows="1" fold="1" page="1" pageScale="1" pageWidth="827" pageHeight="1169" math="0" shadow="0">
      <root>
        <mxCell id="0" />
        <mxCell id="1" parent="0" />
        <mxCell id="hpcFYzZJOgfBUkDhEez_-1" value="" style="rounded=0;whiteSpace=wrap;html=1;" vertex="1" parent="1">
          <mxGeometry x="17" y="240" width="250" height="60" as="geometry" />
        </mxCell>
        <mxCell id="hpcFYzZJOgfBUkDhEez_-2" value="" style="endArrow=none;dashed=1;html=1;" edge="1" parent="1">
          <mxGeometry width="50" height="50" relative="1" as="geometry">
            <mxPoint x="77" y="300" as="sourcePoint" />
            <mxPoint x="77" y="240" as="targetPoint" />
          </mxGeometry>
        </mxCell>
        <mxCell id="hpcFYzZJOgfBUkDhEez_-4" value="" style="endArrow=none;dashed=1;html=1;" edge="1" parent="1">
          <mxGeometry width="50" height="50" relative="1" as="geometry">
            <mxPoint x="137" y="300" as="sourcePoint" />
            <mxPoint x="137" y="240" as="targetPoint" />
          </mxGeometry>
        </mxCell>
        <mxCell id="hpcFYzZJOgfBUkDhEez_-5" value="" style="endArrow=none;dashed=1;html=1;" edge="1" parent="1">
          <mxGeometry width="50" height="50" relative="1" as="geometry">
            <mxPoint x="197" y="300" as="sourcePoint" />
            <mxPoint x="197" y="240" as="targetPoint" />
          </mxGeometry>
        </mxCell>
        <mxCell id="hpcFYzZJOgfBUkDhEez_-9" value="" style="rounded=0;whiteSpace=wrap;html=1;" vertex="1" parent="1">
          <mxGeometry x="267" y="240" width="240" height="60" as="geometry" />
        </mxCell>
        <mxCell id="hpcFYzZJOgfBUkDhEez_-10" value="" style="endArrow=none;dashed=1;html=1;" edge="1" parent="1">
          <mxGeometry width="50" height="50" relative="1" as="geometry">
            <mxPoint x="327" y="300" as="sourcePoint" />
            <mxPoint x="327" y="240" as="targetPoint" />
          </mxGeometry>
        </mxCell>
        <mxCell id="hpcFYzZJOgfBUkDhEez_-11" value="" style="endArrow=none;dashed=1;html=1;" edge="1" parent="1">
          <mxGeometry width="50" height="50" relative="1" as="geometry">
            <mxPoint x="387" y="300" as="sourcePoint" />
            <mxPoint x="387" y="240" as="targetPoint" />
          </mxGeometry>
        </mxCell>
        <mxCell id="hpcFYzZJOgfBUkDhEez_-12" value="" style="endArrow=none;dashed=1;html=1;" edge="1" parent="1">
          <mxGeometry width="50" height="50" relative="1" as="geometry">
            <mxPoint x="447" y="300" as="sourcePoint" />
            <mxPoint x="447" y="240" as="targetPoint" />
          </mxGeometry>
        </mxCell>
        <mxCell id="hpcFYzZJOgfBUkDhEez_-14" value="" style="rounded=0;whiteSpace=wrap;html=1;" vertex="1" parent="1">
          <mxGeometry x="507" y="240" width="240" height="60" as="geometry" />
        </mxCell>
        <mxCell id="hpcFYzZJOgfBUkDhEez_-15" value="" style="endArrow=none;dashed=1;html=1;" edge="1" parent="1">
          <mxGeometry width="50" height="50" relative="1" as="geometry">
            <mxPoint x="567" y="300" as="sourcePoint" />
            <mxPoint x="567" y="240" as="targetPoint" />
          </mxGeometry>
        </mxCell>
        <mxCell id="hpcFYzZJOgfBUkDhEez_-16" value="" style="endArrow=none;dashed=1;html=1;" edge="1" parent="1">
          <mxGeometry width="50" height="50" relative="1" as="geometry">
            <mxPoint x="627" y="300" as="sourcePoint" />
            <mxPoint x="627" y="240" as="targetPoint" />
          </mxGeometry>
        </mxCell>
        <mxCell id="hpcFYzZJOgfBUkDhEez_-17" value="" style="endArrow=none;dashed=1;html=1;" edge="1" parent="1">
          <mxGeometry width="50" height="50" relative="1" as="geometry">
            <mxPoint x="687" y="300" as="sourcePoint" />
            <mxPoint x="687" y="240" as="targetPoint" />
          </mxGeometry>
        </mxCell>
        <mxCell id="hpcFYzZJOgfBUkDhEez_-19" value="" style="endArrow=none;html=1;exitX=1;exitY=0;exitDx=0;exitDy=0;" edge="1" parent="1" source="hpcFYzZJOgfBUkDhEez_-14">
          <mxGeometry width="50" height="50" relative="1" as="geometry">
            <mxPoint x="877" y="250" as="sourcePoint" />
            <mxPoint x="820" y="240" as="targetPoint" />
          </mxGeometry>
        </mxCell>
        <mxCell id="hpcFYzZJOgfBUkDhEez_-20" value="" style="endArrow=none;html=1;exitX=1;exitY=1;exitDx=0;exitDy=0;" edge="1" parent="1" source="hpcFYzZJOgfBUkDhEez_-14">
          <mxGeometry width="50" height="50" relative="1" as="geometry">
            <mxPoint x="857" y="380" as="sourcePoint" />
            <mxPoint x="820" y="300" as="targetPoint" />
          </mxGeometry>
        </mxCell>
        <mxCell id="hpcFYzZJOgfBUkDhEez_-21" value="&lt;font style=&quot;font-size: 20px&quot;&gt;......&lt;/font&gt;" style="text;html=1;strokeColor=none;fillColor=none;align=center;verticalAlign=middle;whiteSpace=wrap;rounded=0;" vertex="1" parent="1">
          <mxGeometry x="767" y="260" width="40" height="20" as="geometry" />
        </mxCell>
        <mxCell id="hpcFYzZJOgfBUkDhEez_-23" value="&lt;font style=&quot;font-size: 18px&quot;&gt;0&lt;/font&gt;" style="text;html=1;strokeColor=none;fillColor=none;align=center;verticalAlign=middle;whiteSpace=wrap;rounded=0;" vertex="1" parent="1">
          <mxGeometry x="27" y="260" width="40" height="20" as="geometry" />
        </mxCell>
        <mxCell id="hpcFYzZJOgfBUkDhEez_-24" value="&lt;font style=&quot;font-size: 18px&quot;&gt;1&lt;/font&gt;" style="text;html=1;strokeColor=none;fillColor=none;align=center;verticalAlign=middle;whiteSpace=wrap;rounded=0;" vertex="1" parent="1">
          <mxGeometry x="87" y="260" width="40" height="20" as="geometry" />
        </mxCell>
        <mxCell id="hpcFYzZJOgfBUkDhEez_-25" value="&lt;font style=&quot;font-size: 18px&quot;&gt;2&lt;/font&gt;" style="text;html=1;strokeColor=none;fillColor=none;align=center;verticalAlign=middle;whiteSpace=wrap;rounded=0;" vertex="1" parent="1">
          <mxGeometry x="147" y="260" width="40" height="20" as="geometry" />
        </mxCell>
        <mxCell id="hpcFYzZJOgfBUkDhEez_-26" value="&lt;font style=&quot;font-size: 18px&quot;&gt;3&lt;/font&gt;" style="text;html=1;strokeColor=none;fillColor=none;align=center;verticalAlign=middle;whiteSpace=wrap;rounded=0;" vertex="1" parent="1">
          <mxGeometry x="207" y="260" width="40" height="20" as="geometry" />
        </mxCell>
        <mxCell id="hpcFYzZJOgfBUkDhEez_-27" value="&lt;font style=&quot;font-size: 18px&quot;&gt;4&lt;/font&gt;" style="text;html=1;strokeColor=none;fillColor=none;align=center;verticalAlign=middle;whiteSpace=wrap;rounded=0;" vertex="1" parent="1">
          <mxGeometry x="277" y="260" width="40" height="20" as="geometry" />
        </mxCell>
        <mxCell id="hpcFYzZJOgfBUkDhEez_-28" value="&lt;font style=&quot;font-size: 18px&quot;&gt;6&lt;/font&gt;" style="text;html=1;strokeColor=none;fillColor=none;align=center;verticalAlign=middle;whiteSpace=wrap;rounded=0;" vertex="1" parent="1">
          <mxGeometry x="397" y="260" width="40" height="20" as="geometry" />
        </mxCell>
        <mxCell id="hpcFYzZJOgfBUkDhEez_-29" value="&lt;font style=&quot;font-size: 18px&quot;&gt;5&lt;/font&gt;" style="text;html=1;strokeColor=none;fillColor=none;align=center;verticalAlign=middle;whiteSpace=wrap;rounded=0;" vertex="1" parent="1">
          <mxGeometry x="337" y="260" width="40" height="20" as="geometry" />
        </mxCell>
        <mxCell id="hpcFYzZJOgfBUkDhEez_-30" value="&lt;font style=&quot;font-size: 18px&quot;&gt;7&lt;/font&gt;" style="text;html=1;strokeColor=none;fillColor=none;align=center;verticalAlign=middle;whiteSpace=wrap;rounded=0;" vertex="1" parent="1">
          <mxGeometry x="457" y="260" width="40" height="20" as="geometry" />
        </mxCell>
        <mxCell id="hpcFYzZJOgfBUkDhEez_-31" value="&lt;font style=&quot;font-size: 18px&quot;&gt;8&lt;/font&gt;" style="text;html=1;strokeColor=none;fillColor=none;align=center;verticalAlign=middle;whiteSpace=wrap;rounded=0;" vertex="1" parent="1">
          <mxGeometry x="517" y="260" width="40" height="20" as="geometry" />
        </mxCell>
        <mxCell id="hpcFYzZJOgfBUkDhEez_-32" value="&lt;font style=&quot;font-size: 18px&quot;&gt;9&lt;/font&gt;" style="text;html=1;strokeColor=none;fillColor=none;align=center;verticalAlign=middle;whiteSpace=wrap;rounded=0;" vertex="1" parent="1">
          <mxGeometry x="577" y="260" width="40" height="20" as="geometry" />
        </mxCell>
        <mxCell id="hpcFYzZJOgfBUkDhEez_-33" value="&lt;font style=&quot;font-size: 18px&quot;&gt;11&lt;/font&gt;" style="text;html=1;strokeColor=none;fillColor=none;align=center;verticalAlign=middle;whiteSpace=wrap;rounded=0;" vertex="1" parent="1">
          <mxGeometry x="697" y="260" width="40" height="20" as="geometry" />
        </mxCell>
        <mxCell id="hpcFYzZJOgfBUkDhEez_-34" value="&lt;font style=&quot;font-size: 18px&quot;&gt;10&lt;/font&gt;" style="text;html=1;strokeColor=none;fillColor=none;align=center;verticalAlign=middle;whiteSpace=wrap;rounded=0;" vertex="1" parent="1">
          <mxGeometry x="637" y="260" width="40" height="20" as="geometry" />
        </mxCell>
        <mxCell id="hpcFYzZJOgfBUkDhEez_-37" value="" style="rounded=0;whiteSpace=wrap;html=1;" vertex="1" parent="1">
          <mxGeometry x="17" y="360" width="240" height="60" as="geometry" />
        </mxCell>
        <mxCell id="hpcFYzZJOgfBUkDhEez_-38" value="" style="endArrow=none;dashed=1;html=1;" edge="1" parent="1">
          <mxGeometry width="50" height="50" relative="1" as="geometry">
            <mxPoint x="77" y="420" as="sourcePoint" />
            <mxPoint x="77" y="360" as="targetPoint" />
          </mxGeometry>
        </mxCell>
        <mxCell id="hpcFYzZJOgfBUkDhEez_-39" value="" style="endArrow=none;dashed=1;html=1;" edge="1" parent="1">
          <mxGeometry width="50" height="50" relative="1" as="geometry">
            <mxPoint x="137" y="420" as="sourcePoint" />
            <mxPoint x="137" y="360" as="targetPoint" />
          </mxGeometry>
        </mxCell>
        <mxCell id="hpcFYzZJOgfBUkDhEez_-40" value="" style="endArrow=none;dashed=1;html=1;" edge="1" parent="1">
          <mxGeometry width="50" height="50" relative="1" as="geometry">
            <mxPoint x="197" y="420" as="sourcePoint" />
            <mxPoint x="197" y="360" as="targetPoint" />
          </mxGeometry>
        </mxCell>
        <mxCell id="hpcFYzZJOgfBUkDhEez_-41" value="&lt;font style=&quot;font-size: 20px&quot;&gt;......&lt;/font&gt;" style="text;html=1;strokeColor=none;fillColor=none;align=center;verticalAlign=middle;whiteSpace=wrap;rounded=0;" vertex="1" parent="1">
          <mxGeometry x="277" y="380" width="40" height="20" as="geometry" />
        </mxCell>
        <mxCell id="hpcFYzZJOgfBUkDhEez_-42" value="&lt;font style=&quot;font-size: 18px&quot;&gt;0&lt;/font&gt;" style="text;html=1;strokeColor=none;fillColor=none;align=center;verticalAlign=middle;whiteSpace=wrap;rounded=0;" vertex="1" parent="1">
          <mxGeometry x="27" y="380" width="40" height="20" as="geometry" />
        </mxCell>
        <mxCell id="hpcFYzZJOgfBUkDhEez_-43" value="&lt;font style=&quot;font-size: 18px&quot;&gt;4&lt;/font&gt;" style="text;html=1;strokeColor=none;fillColor=none;align=center;verticalAlign=middle;whiteSpace=wrap;rounded=0;" vertex="1" parent="1">
          <mxGeometry x="87" y="380" width="40" height="20" as="geometry" />
        </mxCell>
        <mxCell id="hpcFYzZJOgfBUkDhEez_-44" value="&lt;font style=&quot;font-size: 18px&quot;&gt;12&lt;/font&gt;" style="text;html=1;strokeColor=none;fillColor=none;align=center;verticalAlign=middle;whiteSpace=wrap;rounded=0;" vertex="1" parent="1">
          <mxGeometry x="207" y="380" width="40" height="20" as="geometry" />
        </mxCell>
        <mxCell id="hpcFYzZJOgfBUkDhEez_-45" value="&lt;font style=&quot;font-size: 18px&quot;&gt;8&lt;/font&gt;" style="text;html=1;strokeColor=none;fillColor=none;align=center;verticalAlign=middle;whiteSpace=wrap;rounded=0;" vertex="1" parent="1">
          <mxGeometry x="147" y="380" width="40" height="20" as="geometry" />
        </mxCell>
        <mxCell id="hpcFYzZJOgfBUkDhEez_-46" value="" style="endArrow=none;html=1;exitX=1;exitY=0;exitDx=0;exitDy=0;" edge="1" parent="1">
          <mxGeometry width="50" height="50" relative="1" as="geometry">
            <mxPoint x="257" y="360" as="sourcePoint" />
            <mxPoint x="330" y="360" as="targetPoint" />
          </mxGeometry>
        </mxCell>
        <mxCell id="hpcFYzZJOgfBUkDhEez_-47" value="" style="endArrow=none;html=1;exitX=1;exitY=0;exitDx=0;exitDy=0;" edge="1" parent="1">
          <mxGeometry width="50" height="50" relative="1" as="geometry">
            <mxPoint x="257" y="420" as="sourcePoint" />
            <mxPoint x="330" y="420" as="targetPoint" />
          </mxGeometry>
        </mxCell>
        <mxCell id="hpcFYzZJOgfBUkDhEez_-48" value="" style="endArrow=classic;html=1;exitX=0.131;exitY=0.037;exitDx=0;exitDy=0;exitPerimeter=0;entryX=0.126;entryY=0.997;entryDx=0;entryDy=0;entryPerimeter=0;" edge="1" parent="1" source="hpcFYzZJOgfBUkDhEez_-37" target="hpcFYzZJOgfBUkDhEez_-1">
          <mxGeometry width="50" height="50" relative="1" as="geometry">
            <mxPoint x="377" y="370" as="sourcePoint" />
            <mxPoint x="427" y="320" as="targetPoint" />
          </mxGeometry>
        </mxCell>
        <mxCell id="hpcFYzZJOgfBUkDhEez_-49" value="" style="endArrow=classic;html=1;exitX=0.384;exitY=-0.003;exitDx=0;exitDy=0;exitPerimeter=0;entryX=0.123;entryY=1.023;entryDx=0;entryDy=0;entryPerimeter=0;" edge="1" parent="1" source="hpcFYzZJOgfBUkDhEez_-37" target="hpcFYzZJOgfBUkDhEez_-9">
          <mxGeometry width="50" height="50" relative="1" as="geometry">
            <mxPoint x="397" y="370" as="sourcePoint" />
            <mxPoint x="447" y="320" as="targetPoint" />
          </mxGeometry>
        </mxCell>
        <mxCell id="hpcFYzZJOgfBUkDhEez_-50" value="" style="endArrow=classic;html=1;" edge="1" parent="1">
          <mxGeometry width="50" height="50" relative="1" as="geometry">
            <mxPoint x="168" y="361" as="sourcePoint" />
            <mxPoint x="539" y="299" as="targetPoint" />
          </mxGeometry>
        </mxCell>
        <mxCell id="hpcFYzZJOgfBUkDhEez_-51" value="L2 Table" style="text;html=1;strokeColor=none;fillColor=none;align=center;verticalAlign=middle;whiteSpace=wrap;rounded=0;" vertex="1" parent="1">
          <mxGeometry x="107" y="208" width="70" height="20" as="geometry" />
        </mxCell>
        <mxCell id="hpcFYzZJOgfBUkDhEez_-52" value="L1 Table" style="text;html=1;strokeColor=none;fillColor=none;align=center;verticalAlign=middle;whiteSpace=wrap;rounded=0;" vertex="1" parent="1">
          <mxGeometry x="102" y="436" width="70" height="20" as="geometry" />
        </mxCell>
        <mxCell id="hpcFYzZJOgfBUkDhEez_-53" value="L2 Table" style="text;html=1;strokeColor=none;fillColor=none;align=center;verticalAlign=middle;whiteSpace=wrap;rounded=0;" vertex="1" parent="1">
          <mxGeometry x="352" y="211" width="70" height="20" as="geometry" />
        </mxCell>
        <mxCell id="hpcFYzZJOgfBUkDhEez_-54" value="L2 Table" style="text;html=1;strokeColor=none;fillColor=none;align=center;verticalAlign=middle;whiteSpace=wrap;rounded=0;" vertex="1" parent="1">
          <mxGeometry x="592" y="214" width="70" height="20" as="geometry" />
        </mxCell>
      </root>
    </mxGraphModel>
  </diagram>
</mxfile>
